<mxfile host="app.diagrams.net" agent="Mozilla/5.0 (Windows NT 10.0; Win64; x64) AppleWebKit/537.36 (KHTML, like Gecko) Chrome/129.0.0.0 Safari/537.36" version="24.7.16">
  <diagram name="Страница — 1" id="6JX4ujOH3lVVpIgb5iFN">
    <mxGraphModel dx="1900" dy="757" grid="0" gridSize="10" guides="1" tooltips="1" connect="1" arrows="1" fold="1" page="0" pageScale="1" pageWidth="827" pageHeight="1169" math="0" shadow="0">
      <root>
        <mxCell id="0" />
        <mxCell id="1" parent="0" />
        <mxCell id="WvDfdPf1YDuxz4j1xMxI-1" value="&lt;font style=&quot;font-size: 13px;&quot;&gt;Получение информации о новой продукции из вторсырья&lt;/font&gt;" style="rounded=0;whiteSpace=wrap;html=1;" vertex="1" parent="1">
          <mxGeometry x="300" y="190" width="240" height="80" as="geometry" />
        </mxCell>
        <mxCell id="WvDfdPf1YDuxz4j1xMxI-3" value="Количество сданных отходов" style="text;html=1;align=center;verticalAlign=middle;resizable=0;points=[];autosize=1;strokeColor=none;fillColor=none;" vertex="1" parent="1">
          <mxGeometry y="190" width="190" height="30" as="geometry" />
        </mxCell>
        <mxCell id="WvDfdPf1YDuxz4j1xMxI-4" value="Информация о новой продукции" style="text;html=1;align=center;verticalAlign=middle;resizable=0;points=[];autosize=1;strokeColor=none;fillColor=none;" vertex="1" parent="1">
          <mxGeometry x="610" y="215" width="200" height="30" as="geometry" />
        </mxCell>
        <mxCell id="WvDfdPf1YDuxz4j1xMxI-5" value="Валидация формы" style="text;html=1;align=center;verticalAlign=middle;resizable=0;points=[];autosize=1;strokeColor=none;fillColor=none;" vertex="1" parent="1">
          <mxGeometry x="355" y="100" width="130" height="30" as="geometry" />
        </mxCell>
        <mxCell id="WvDfdPf1YDuxz4j1xMxI-6" value="Админист&lt;span style=&quot;color: rgba(0, 0, 0, 0); font-family: monospace; font-size: 0px; text-align: start;&quot;&gt;%3CmxGraphModel%3E%3Croot%3E%3CmxCell%20id%3D%220%22%2F%3E%3CmxCell%20id%3D%221%22%20parent%3D%220%22%2F%3E%3CmxCell%20id%3D%222%22%20value%3D%22%D0%92%D0%B0%D0%BB%D0%B8%D0%B4%D0%B0%D1%86%D0%B8%D1%8F%20%D1%84%D0%BE%D1%80%D0%BC%D1%8B%22%20style%3D%22text%3Bhtml%3D1%3Balign%3Dcenter%3BverticalAlign%3Dmiddle%3Bresizable%3D0%3Bpoints%3D%5B%5D%3Bautosize%3D1%3BstrokeColor%3Dnone%3BfillColor%3Dnone%3B%22%20vertex%3D%221%22%20parent%3D%221%22%3E%3CmxGeometry%20x%3D%22370%22%20y%3D%2270%22%20width%3D%22130%22%20height%3D%2230%22%20as%3D%22geometry%22%2F%3E%3C%2FmxCell%3E%3C%2Froot%3E%3C%2FmxGraphModel%3E&lt;/span&gt;ратор" style="text;html=1;align=center;verticalAlign=middle;resizable=0;points=[];autosize=1;strokeColor=none;fillColor=none;" vertex="1" parent="1">
          <mxGeometry x="430" y="335" width="110" height="30" as="geometry" />
        </mxCell>
        <mxCell id="WvDfdPf1YDuxz4j1xMxI-7" value="Пользователь&amp;nbsp;&lt;div&gt;приложения&lt;/div&gt;" style="text;html=1;align=center;verticalAlign=middle;resizable=0;points=[];autosize=1;strokeColor=none;fillColor=none;" vertex="1" parent="1">
          <mxGeometry x="300" y="330" width="100" height="40" as="geometry" />
        </mxCell>
        <mxCell id="WvDfdPf1YDuxz4j1xMxI-8" value="Вид сдаваемых отходов" style="text;html=1;align=center;verticalAlign=middle;resizable=0;points=[];autosize=1;strokeColor=none;fillColor=none;" vertex="1" parent="1">
          <mxGeometry x="10" y="215" width="160" height="30" as="geometry" />
        </mxCell>
        <mxCell id="WvDfdPf1YDuxz4j1xMxI-9" value="Фактор подтверждения сдачи отходов" style="text;html=1;align=center;verticalAlign=middle;resizable=0;points=[];autosize=1;strokeColor=none;fillColor=none;" vertex="1" parent="1">
          <mxGeometry x="-30" y="240" width="240" height="30" as="geometry" />
        </mxCell>
        <mxCell id="WvDfdPf1YDuxz4j1xMxI-10" value="" style="endArrow=classic;html=1;rounded=0;" edge="1" parent="1">
          <mxGeometry width="50" height="50" relative="1" as="geometry">
            <mxPoint x="200" y="254.5" as="sourcePoint" />
            <mxPoint x="280" y="255" as="targetPoint" />
          </mxGeometry>
        </mxCell>
        <mxCell id="WvDfdPf1YDuxz4j1xMxI-11" value="" style="endArrow=classic;html=1;rounded=0;" edge="1" parent="1">
          <mxGeometry width="50" height="50" relative="1" as="geometry">
            <mxPoint x="190" y="204.71" as="sourcePoint" />
            <mxPoint x="280" y="205" as="targetPoint" />
          </mxGeometry>
        </mxCell>
        <mxCell id="WvDfdPf1YDuxz4j1xMxI-12" value="" style="endArrow=classic;html=1;rounded=0;" edge="1" parent="1">
          <mxGeometry width="50" height="50" relative="1" as="geometry">
            <mxPoint x="170" y="229.71" as="sourcePoint" />
            <mxPoint x="280" y="230" as="targetPoint" />
          </mxGeometry>
        </mxCell>
        <mxCell id="WvDfdPf1YDuxz4j1xMxI-13" value="" style="endArrow=classic;html=1;rounded=0;" edge="1" parent="1">
          <mxGeometry width="50" height="50" relative="1" as="geometry">
            <mxPoint x="550" y="229.71" as="sourcePoint" />
            <mxPoint x="610" y="230.3" as="targetPoint" />
          </mxGeometry>
        </mxCell>
        <mxCell id="WvDfdPf1YDuxz4j1xMxI-14" value="" style="endArrow=classic;html=1;rounded=0;exitX=0.498;exitY=1.053;exitDx=0;exitDy=0;exitPerimeter=0;" edge="1" parent="1" source="WvDfdPf1YDuxz4j1xMxI-5">
          <mxGeometry width="50" height="50" relative="1" as="geometry">
            <mxPoint x="410" y="140" as="sourcePoint" />
            <mxPoint x="420" y="180" as="targetPoint" />
          </mxGeometry>
        </mxCell>
        <mxCell id="WvDfdPf1YDuxz4j1xMxI-15" value="" style="endArrow=classic;html=1;rounded=0;exitX=0.502;exitY=0;exitDx=0;exitDy=0;exitPerimeter=0;" edge="1" parent="1" source="WvDfdPf1YDuxz4j1xMxI-7">
          <mxGeometry width="50" height="50" relative="1" as="geometry">
            <mxPoint x="400" y="360" as="sourcePoint" />
            <mxPoint x="351" y="280" as="targetPoint" />
          </mxGeometry>
        </mxCell>
        <mxCell id="WvDfdPf1YDuxz4j1xMxI-16" value="" style="endArrow=classic;html=1;rounded=0;" edge="1" parent="1">
          <mxGeometry width="50" height="50" relative="1" as="geometry">
            <mxPoint x="486" y="330" as="sourcePoint" />
            <mxPoint x="486" y="280" as="targetPoint" />
          </mxGeometry>
        </mxCell>
        <mxCell id="WvDfdPf1YDuxz4j1xMxI-17" value="Информация из&lt;div&gt;&amp;nbsp;&lt;span style=&quot;background-color: initial;&quot;&gt;заполненной&amp;nbsp;&lt;/span&gt;&lt;/div&gt;&lt;div&gt;&lt;span style=&quot;background-color: initial;&quot;&gt;формы&lt;/span&gt;&lt;/div&gt;" style="text;html=1;align=center;verticalAlign=middle;resizable=0;points=[];autosize=1;strokeColor=none;fillColor=none;" vertex="1" parent="1">
          <mxGeometry x="293" y="570" width="107" height="55" as="geometry" />
        </mxCell>
        <mxCell id="WvDfdPf1YDuxz4j1xMxI-18" value="" style="endArrow=classic;html=1;rounded=0;" edge="1" parent="1">
          <mxGeometry width="50" height="50" relative="1" as="geometry">
            <mxPoint x="416" y="388" as="sourcePoint" />
            <mxPoint x="416" y="280" as="targetPoint" />
          </mxGeometry>
        </mxCell>
        <mxCell id="WvDfdPf1YDuxz4j1xMxI-19" value="&lt;font style=&quot;font-size: 13px;&quot;&gt;Заполнение формы&lt;/font&gt;" style="rounded=0;whiteSpace=wrap;html=1;" vertex="1" parent="1">
          <mxGeometry x="46" y="589" width="240" height="80" as="geometry" />
        </mxCell>
        <mxCell id="WvDfdPf1YDuxz4j1xMxI-20" value="A0.1" style="text;html=1;align=center;verticalAlign=middle;resizable=0;points=[];autosize=1;strokeColor=none;fillColor=none;" vertex="1" parent="1">
          <mxGeometry x="248" y="643" width="43" height="26" as="geometry" />
        </mxCell>
        <mxCell id="WvDfdPf1YDuxz4j1xMxI-21" value="&lt;font style=&quot;font-size: 13px;&quot;&gt;Подтверждение введенных данных&lt;/font&gt;" style="rounded=0;whiteSpace=wrap;html=1;" vertex="1" parent="1">
          <mxGeometry x="408" y="589" width="240" height="80" as="geometry" />
        </mxCell>
        <mxCell id="WvDfdPf1YDuxz4j1xMxI-22" value="A0.2" style="text;html=1;align=center;verticalAlign=middle;resizable=0;points=[];autosize=1;strokeColor=none;fillColor=none;" vertex="1" parent="1">
          <mxGeometry x="605" y="643" width="43" height="26" as="geometry" />
        </mxCell>
        <mxCell id="WvDfdPf1YDuxz4j1xMxI-23" value="&lt;span style=&quot;font-size: 13px;&quot;&gt;Отправка результата&lt;/span&gt;" style="rounded=0;whiteSpace=wrap;html=1;" vertex="1" parent="1">
          <mxGeometry x="779" y="589" width="240" height="80" as="geometry" />
        </mxCell>
        <mxCell id="WvDfdPf1YDuxz4j1xMxI-24" value="A0.3" style="text;html=1;align=center;verticalAlign=middle;resizable=0;points=[];autosize=1;strokeColor=none;fillColor=none;" vertex="1" parent="1">
          <mxGeometry x="976" y="643" width="43" height="26" as="geometry" />
        </mxCell>
        <mxCell id="WvDfdPf1YDuxz4j1xMxI-25" value="" style="endArrow=classic;html=1;rounded=0;" edge="1" parent="1">
          <mxGeometry width="50" height="50" relative="1" as="geometry">
            <mxPoint x="300" y="631" as="sourcePoint" />
            <mxPoint x="390" y="631.29" as="targetPoint" />
          </mxGeometry>
        </mxCell>
        <mxCell id="WvDfdPf1YDuxz4j1xMxI-26" value="" style="endArrow=classic;html=1;rounded=0;" edge="1" parent="1">
          <mxGeometry width="50" height="50" relative="1" as="geometry">
            <mxPoint x="665" y="633" as="sourcePoint" />
            <mxPoint x="755" y="633.29" as="targetPoint" />
          </mxGeometry>
        </mxCell>
        <mxCell id="WvDfdPf1YDuxz4j1xMxI-27" value="Данные о&amp;nbsp;&lt;div&gt;состоянии&amp;nbsp;&lt;/div&gt;&lt;div&gt;продукции из&amp;nbsp;&lt;/div&gt;&lt;div&gt;вторсырья&lt;/div&gt;" style="text;html=1;align=center;verticalAlign=middle;resizable=0;points=[];autosize=1;strokeColor=none;fillColor=none;" vertex="1" parent="1">
          <mxGeometry x="666" y="563" width="95" height="70" as="geometry" />
        </mxCell>
        <mxCell id="WvDfdPf1YDuxz4j1xMxI-28" value="Информация о&amp;nbsp;&lt;div&gt;новой продукции&lt;/div&gt;" style="text;html=1;align=center;verticalAlign=middle;resizable=0;points=[];autosize=1;strokeColor=none;fillColor=none;" vertex="1" parent="1">
          <mxGeometry x="1111" y="610" width="112" height="41" as="geometry" />
        </mxCell>
        <mxCell id="WvDfdPf1YDuxz4j1xMxI-29" value="" style="endArrow=classic;html=1;rounded=0;" edge="1" parent="1">
          <mxGeometry width="50" height="50" relative="1" as="geometry">
            <mxPoint x="1037" y="633" as="sourcePoint" />
            <mxPoint x="1097" y="633.59" as="targetPoint" />
          </mxGeometry>
        </mxCell>
        <mxCell id="WvDfdPf1YDuxz4j1xMxI-30" value="База данных" style="text;html=1;align=center;verticalAlign=middle;resizable=0;points=[];autosize=1;strokeColor=none;fillColor=none;" vertex="1" parent="1">
          <mxGeometry x="370" y="397" width="89" height="26" as="geometry" />
        </mxCell>
        <mxCell id="WvDfdPf1YDuxz4j1xMxI-33" value="Админист&lt;span style=&quot;color: rgba(0, 0, 0, 0); font-family: monospace; font-size: 0px; text-align: start;&quot;&gt;%3CmxGraphModel%3E%3Croot%3E%3CmxCell%20id%3D%220%22%2F%3E%3CmxCell%20id%3D%221%22%20parent%3D%220%22%2F%3E%3CmxCell%20id%3D%222%22%20value%3D%22%D0%92%D0%B0%D0%BB%D0%B8%D0%B4%D0%B0%D1%86%D0%B8%D1%8F%20%D1%84%D0%BE%D1%80%D0%BC%D1%8B%22%20style%3D%22text%3Bhtml%3D1%3Balign%3Dcenter%3BverticalAlign%3Dmiddle%3Bresizable%3D0%3Bpoints%3D%5B%5D%3Bautosize%3D1%3BstrokeColor%3Dnone%3BfillColor%3Dnone%3B%22%20vertex%3D%221%22%20parent%3D%221%22%3E%3CmxGeometry%20x%3D%22370%22%20y%3D%2270%22%20width%3D%22130%22%20height%3D%2230%22%20as%3D%22geometry%22%2F%3E%3C%2FmxCell%3E%3C%2Froot%3E%3C%2FmxGraphModel%3E&lt;/span&gt;ратор" style="text;html=1;align=center;verticalAlign=middle;resizable=0;points=[];autosize=1;strokeColor=none;fillColor=none;" vertex="1" parent="1">
          <mxGeometry x="844" y="736" width="110" height="30" as="geometry" />
        </mxCell>
        <mxCell id="WvDfdPf1YDuxz4j1xMxI-34" value="" style="endArrow=classic;html=1;rounded=0;" edge="1" parent="1">
          <mxGeometry width="50" height="50" relative="1" as="geometry">
            <mxPoint x="900" y="731" as="sourcePoint" />
            <mxPoint x="900" y="681" as="targetPoint" />
          </mxGeometry>
        </mxCell>
        <mxCell id="WvDfdPf1YDuxz4j1xMxI-35" value="Админист&lt;span style=&quot;color: rgba(0, 0, 0, 0); font-family: monospace; font-size: 0px; text-align: start;&quot;&gt;%3CmxGraphModel%3E%3Croot%3E%3CmxCell%20id%3D%220%22%2F%3E%3CmxCell%20id%3D%221%22%20parent%3D%220%22%2F%3E%3CmxCell%20id%3D%222%22%20value%3D%22%D0%92%D0%B0%D0%BB%D0%B8%D0%B4%D0%B0%D1%86%D0%B8%D1%8F%20%D1%84%D0%BE%D1%80%D0%BC%D1%8B%22%20style%3D%22text%3Bhtml%3D1%3Balign%3Dcenter%3BverticalAlign%3Dmiddle%3Bresizable%3D0%3Bpoints%3D%5B%5D%3Bautosize%3D1%3BstrokeColor%3Dnone%3BfillColor%3Dnone%3B%22%20vertex%3D%221%22%20parent%3D%221%22%3E%3CmxGeometry%20x%3D%22370%22%20y%3D%2270%22%20width%3D%22130%22%20height%3D%2230%22%20as%3D%22geometry%22%2F%3E%3C%2FmxCell%3E%3C%2Froot%3E%3C%2FmxGraphModel%3E&lt;/span&gt;ратор" style="text;html=1;align=center;verticalAlign=middle;resizable=0;points=[];autosize=1;strokeColor=none;fillColor=none;" vertex="1" parent="1">
          <mxGeometry x="473" y="736" width="110" height="30" as="geometry" />
        </mxCell>
        <mxCell id="WvDfdPf1YDuxz4j1xMxI-36" value="" style="endArrow=classic;html=1;rounded=0;" edge="1" parent="1">
          <mxGeometry width="50" height="50" relative="1" as="geometry">
            <mxPoint x="529" y="731" as="sourcePoint" />
            <mxPoint x="529" y="681" as="targetPoint" />
          </mxGeometry>
        </mxCell>
        <mxCell id="WvDfdPf1YDuxz4j1xMxI-37" value="Пользователь" style="text;html=1;align=center;verticalAlign=middle;resizable=0;points=[];autosize=1;strokeColor=none;fillColor=none;" vertex="1" parent="1">
          <mxGeometry x="118" y="738" width="96" height="26" as="geometry" />
        </mxCell>
        <mxCell id="WvDfdPf1YDuxz4j1xMxI-38" value="" style="endArrow=classic;html=1;rounded=0;" edge="1" parent="1">
          <mxGeometry width="50" height="50" relative="1" as="geometry">
            <mxPoint x="167" y="731" as="sourcePoint" />
            <mxPoint x="167" y="681" as="targetPoint" />
          </mxGeometry>
        </mxCell>
        <mxCell id="WvDfdPf1YDuxz4j1xMxI-39" value="Валидация формы" style="text;html=1;align=center;verticalAlign=middle;resizable=0;points=[];autosize=1;strokeColor=none;fillColor=none;" vertex="1" parent="1">
          <mxGeometry x="101" y="483" width="130" height="30" as="geometry" />
        </mxCell>
        <mxCell id="WvDfdPf1YDuxz4j1xMxI-40" value="" style="endArrow=classic;html=1;rounded=0;exitX=0.498;exitY=1.053;exitDx=0;exitDy=0;exitPerimeter=0;" edge="1" parent="1" source="WvDfdPf1YDuxz4j1xMxI-39">
          <mxGeometry width="50" height="50" relative="1" as="geometry">
            <mxPoint x="156" y="523" as="sourcePoint" />
            <mxPoint x="166" y="563" as="targetPoint" />
          </mxGeometry>
        </mxCell>
        <mxCell id="WvDfdPf1YDuxz4j1xMxI-41" value="Количество сданных отходов" style="text;html=1;align=center;verticalAlign=middle;resizable=0;points=[];autosize=1;strokeColor=none;fillColor=none;" vertex="1" parent="1">
          <mxGeometry x="-260" y="614" width="190" height="30" as="geometry" />
        </mxCell>
        <mxCell id="WvDfdPf1YDuxz4j1xMxI-42" value="" style="endArrow=classic;html=1;rounded=0;" edge="1" parent="1">
          <mxGeometry width="50" height="50" relative="1" as="geometry">
            <mxPoint x="-70" y="628.71" as="sourcePoint" />
            <mxPoint x="20" y="629" as="targetPoint" />
          </mxGeometry>
        </mxCell>
      </root>
    </mxGraphModel>
  </diagram>
</mxfile>
